<svg width="15" height="14" viewBox="0 0 15 14" fill="none" xmlns="http://www.w3.org/2000/svg">
<g id="call" clip-path="url(#clip0_44_249)">
<g id="Group">
<g id="Group_2">
<g id="Group_3">
<path id="Vector" d="M14.6064 10.8002L11.5704 8.91052C11.1851 8.67264 10.6686 8.75091 10.3838 9.09039L9.4994 10.1517C9.38575 10.2915 9.17915 10.3321 9.01473 10.2469L8.8465 10.1603C8.28883 9.8766 7.59495 9.5234 6.19691 8.21809C4.79886 6.91278 4.41967 6.26467 4.1157 5.74513L4.02346 5.58812C3.93087 5.43469 3.97352 5.24104 4.12343 5.13412L5.25975 4.30895C5.62333 4.04307 5.70731 3.56118 5.45273 3.20148L3.42803 0.367826C3.16712 0.00152881 2.64366 -0.108431 2.23975 0.118187L0.970182 0.829976C0.571276 1.04886 0.278615 1.40334 0.153565 1.81915C-0.303604 3.37385 0.0403198 6.05702 4.2752 10.01C7.64396 13.154 10.1518 13.9995 11.8756 13.9995C12.2723 14.001 12.6674 13.9529 13.0504 13.8562C13.496 13.7396 13.8759 13.4665 14.1103 13.094L14.8736 11.9098C15.1168 11.5328 14.999 11.0439 14.6064 10.8002ZM14.4429 11.6704L13.6813 12.8554C13.513 13.1242 13.2398 13.3218 12.9189 13.4069C11.3811 13.8009 8.69453 13.4746 4.62888 9.67994C0.563221 5.88533 0.213556 3.37806 0.635749 1.94259C0.727025 1.64273 0.939044 1.38741 1.2274 1.23009L2.49697 0.519233C2.67222 0.42081 2.89942 0.468518 3.01263 0.627471L4.11248 2.16864L5.0356 3.46087C5.14615 3.6169 5.10983 3.82602 4.95212 3.94148L3.81554 4.76665C3.46965 5.0135 3.37088 5.46014 3.58384 5.81463L3.67409 5.96768C3.99355 6.51453 4.39073 7.19482 5.84077 8.54797C7.29081 9.90109 8.01946 10.2718 8.6051 10.57L8.76932 10.6544C9.1491 10.8531 9.62768 10.761 9.89216 10.4382L10.7763 9.37735C10.9 9.23023 11.124 9.19636 11.2912 9.29943L14.327 11.1891C14.4974 11.2947 14.5485 11.5069 14.4429 11.6704Z" fill="#999999"/>
<path id="Vector_2" d="M8.49956 2.33426C10.8453 2.33669 12.7463 4.11095 12.7489 6.30034C12.7489 6.42919 12.8608 6.53363 12.9989 6.53363C13.137 6.53363 13.2488 6.42919 13.2488 6.30034C13.2459 3.85336 11.1213 1.87036 8.49956 1.86768C8.36151 1.86768 8.24961 1.97211 8.24961 2.10097C8.24961 2.22982 8.36151 2.33426 8.49956 2.33426Z" fill="#999999"/>
<path id="Vector_3" d="M8.49956 3.73416C10.0174 3.73582 11.2474 4.88382 11.2492 6.30045C11.2492 6.4293 11.3611 6.53374 11.4991 6.53374C11.6372 6.53374 11.7491 6.4293 11.7491 6.30045C11.747 4.62622 10.2934 3.26949 8.49956 3.26758C8.36151 3.26758 8.24961 3.37202 8.24961 3.50087C8.24961 3.62972 8.36151 3.73416 8.49956 3.73416Z" fill="#999999"/>
<path id="Vector_4" d="M8.49956 5.13406C9.18946 5.13483 9.74854 5.65663 9.74939 6.30056C9.74939 6.42941 9.86132 6.53385 9.99934 6.53385C10.1374 6.53385 10.2493 6.42941 10.2493 6.30056C10.2482 5.39906 9.46546 4.66849 8.49956 4.66748C8.36151 4.66748 8.24961 4.77192 8.24961 4.90077C8.24961 5.02962 8.36151 5.13406 8.49956 5.13406Z" fill="#999999"/>
</g>
</g>
</g>
</g>
<defs>
<clipPath id="clip0_44_249">
<rect width="15" height="14" fill="white"/>
</clipPath>
</defs>
</svg>
